<?xml version="1.0" encoding="UTF-8"?><svg id="Layer_1" xmlns="http://www.w3.org/2000/svg" viewBox="0 0 1908.05 1908.05"><path d="M954.02,277.48c-91.37,0-179.96,17.88-263.31,53.13-80.55,34.07-152.91,82.86-215.07,145.02-62.16,62.16-110.95,134.52-145.02,215.07-35.26,83.35-53.13,171.94-53.13,263.31s17.88,179.96,53.13,263.32c34.07,80.55,82.86,152.91,145.02,215.07,62.16,62.16,134.52,110.95,215.07,145.02,83.35,35.26,171.94,53.13,263.31,53.13s179.96-17.88,263.31-53.13c80.55-34.07,152.91-82.86,215.07-145.02,3.92-3.92,7.79-7.89,11.6-11.89l-808-466.5,808-466.5c-3.82-4-7.68-7.97-11.6-11.89-62.16-62.16-134.52-110.95-215.07-145.02-83.35-35.26-171.94-53.13-263.31-53.13Z" style="fill:#e7e7e7;"/><path d="M1741.01,414.62l-167.03,96.43-74.3,42.9-692.95,400.07,692.95,400.07,74.3,42.9,167.03,96.43c105.36-153.43,167.04-339.21,167.04-539.4s-61.67-385.97-167.04-539.4Z" style="fill:#e7e7e7;"/><path d="M954.02,1715.93c-420.79,0-761.9-341.12-761.9-761.9S533.24,192.12,954.02,192.12c224.52,0,426.35,97.12,565.79,251.64l169.37-97.79C1514.2,134.64,1249.84,0,954.02,0,427.13,0,0,427.13,0,954.02s427.13,954.02,954.02,954.02c295.81,0,560.18-134.64,735.17-345.97l-169.37-97.79c-139.44,154.52-341.27,251.64-565.79,251.64Z" style="fill:#e7e7e7;"/></svg>