<?xml version="1.0" encoding="UTF-8"?>
<svg id="Layer_1" xmlns="http://www.w3.org/2000/svg" version="1.1" viewBox="0 0 2000 2000">
  <!-- Generator: Adobe Illustrator 29.3.1, SVG Export Plug-In . SVG Version: 2.1.0 Build 151)  -->
  <defs>
    <style>
      .st0 {
        fill: #e7e7e7;
      }
    </style>
  </defs>
  <path class="st0" d="M1000,323.5c-91.4,0-180,17.9-263.3,53.1-80.6,34.1-152.9,82.9-215.1,145-62.2,62.2-111,134.5-145,215.1-35.3,83.4-53.1,171.9-53.1,263.3s17.9,180,53.1,263.3c34.1,80.6,82.9,152.9,145,215.1,62.2,62.2,134.5,111,215.1,145,83.4,35.3,171.9,53.1,263.3,53.1s180-17.9,263.3-53.1c80.6-34.1,152.9-82.9,215.1-145,3.9-3.9,7.8-7.9,11.6-11.9l-808-466.5,808-466.5c-3.8-4-7.7-8-11.6-11.9-62.2-62.2-134.5-111-215.1-145-83.4-35.3-171.9-53.1-263.3-53.1Z"/>
  <path class="st0" d="M1787,460.6l-167,96.4-74.3,42.9-692.9,400.1,692.9,400.1,74.3,42.9,167,96.4c105.4-153.4,167-339.2,167-539.4s-61.7-386-167-539.4Z"/>
  <path class="st0" d="M1000,1761.9c-420.8,0-761.9-341.1-761.9-761.9S579.2,238.1,1000,238.1s426.4,97.1,565.8,251.6l169.4-97.8C1560.2,180.6,1295.8,46,1000,46,473.1,46,46,473.1,46,1000s427.1,954,954,954,560.2-134.6,735.2-346l-169.4-97.8c-139.4,154.5-341.3,251.6-565.8,251.6Z"/>
</svg>